<svg xmlns="http://www.w3.org/2000/svg" width="420" height="427" viewBox="0 0 420 427" role="img" aria-labelledby="title"><title id="title">Diogo Reis Lago / Developer Command Center</title><rect x="1" y="1" width="418" height="425" rx="4" fill="#080d12" stroke="#203943"/><g opacity="0.5"><path d="M20 1L20 426" stroke="#101c23"/><path d="M60 1L60 426" stroke="#101c23"/><path d="M100 1L100 426" stroke="#101c23"/><path d="M140 1L140 426" stroke="#101c23"/><path d="M180 1L180 426" stroke="#101c23"/><path d="M220 1L220 426" stroke="#101c23"/><path d="M260 1L260 426" stroke="#101c23"/><path d="M300 1L300 426" stroke="#101c23"/><path d="M340 1L340 426" stroke="#101c23"/><path d="M380 1L380 426" stroke="#101c23"/><path d="M1 20H419" stroke="#101c23"/><path d="M1 60H419" stroke="#101c23"/><path d="M1 100H419" stroke="#101c23"/><path d="M1 140H419" stroke="#101c23"/><path d="M1 180H419" stroke="#101c23"/><path d="M1 220H419" stroke="#101c23"/><path d="M1 260H419" stroke="#101c23"/><path d="M1 300H419" stroke="#101c23"/><path d="M1 340H419" stroke="#101c23"/><path d="M1 380H419" stroke="#101c23"/><path d="M1 420H419" stroke="#101c23"/></g><path d="M1 26V1H72 M348 426H419V401" stroke="#39ff88" stroke-width="2" fill="none"/><text x="24" y="32" fill="#39ff88" font-family="Consolas,monospace" font-size="12" font-weight="400">DRL / DEVELOPER COMMAND CENTER</text><path d="M24 48H396" stroke="#203943"/><text x="24" y="78" fill="#39ff88" font-family="Consolas,monospace" font-size="13" font-weight="400">[ SYSTEM BOOT ]</text><text x="24" y="101" fill="#94aab9" font-family="Consolas,monospace" font-size="13" font-weight="400">&gt; INITIALIZING DEVELOPER PROFILE...</text><text x="24" y="124" fill="#94aab9" font-family="Consolas,monospace" font-size="13" font-weight="400">&gt; LOADING PROJECTS...</text><text x="24" y="147" fill="#94aab9" font-family="Consolas,monospace" font-size="13" font-weight="400">&gt; CONNECTING TO GITHUB...</text><text x="24" y="170" fill="#39ff88" font-family="Consolas,monospace" font-size="13" font-weight="400">&gt; SYSTEM ONLINE ✓</text><text x="24" y="244" fill="#e6f1f5" font-family="Segoe UI,Arial,sans-serif" font-size="48" font-weight="700">DIOGO</text><text x="24" y="293" fill="#e6f1f5" font-family="Segoe UI,Arial,sans-serif" font-size="48" font-weight="700">REIS LAGO</text><text x="24" y="327" fill="#37dfff" font-family="Consolas,monospace" font-size="15" font-weight="400">SOFTWARE ENGINEERING</text><text x="24" y="355" fill="#94aab9" font-family="Consolas,monospace" font-size="13" font-weight="400">Full Stack / Backend / AI / DevOps</text><path d="M24 376H396" stroke="#203943"/><text x="24" y="403" fill="#39ff88" font-family="Consolas,monospace" font-size="12" font-weight="400">01 OPERATOR  /  04 PROJECT NODES</text></svg>