<svg xmlns="http://www.w3.org/2000/svg" width="900" height="296" viewBox="0 0 900 296" role="img" aria-labelledby="title"><title id="title">Missão atual: sistemas escaláveis, IA aplicada, arquitetura backend, DevOps e entrega de projetos</title><rect x="1" y="1" width="898" height="294" rx="4" fill="#080d12" stroke="#203943"/><g opacity="0.5"><path d="M20 1L20 295" stroke="#101c23"/><path d="M60 1L60 295" stroke="#101c23"/><path d="M100 1L100 295" stroke="#101c23"/><path d="M140 1L140 295" stroke="#101c23"/><path d="M180 1L180 295" stroke="#101c23"/><path d="M220 1L220 295" stroke="#101c23"/><path d="M260 1L260 295" stroke="#101c23"/><path d="M300 1L300 295" stroke="#101c23"/><path d="M340 1L340 295" stroke="#101c23"/><path d="M380 1L380 295" stroke="#101c23"/><path d="M420 1L420 295" stroke="#101c23"/><path d="M460 1L460 295" stroke="#101c23"/><path d="M500 1L500 295" stroke="#101c23"/><path d="M540 1L540 295" stroke="#101c23"/><path d="M580 1L580 295" stroke="#101c23"/><path d="M620 1L620 295" stroke="#101c23"/><path d="M660 1L660 295" stroke="#101c23"/><path d="M700 1L700 295" stroke="#101c23"/><path d="M740 1L740 295" stroke="#101c23"/><path d="M780 1L780 295" stroke="#101c23"/><path d="M820 1L820 295" stroke="#101c23"/><path d="M860 1L860 295" stroke="#101c23"/><path d="M1 20H899" stroke="#101c23"/><path d="M1 60H899" stroke="#101c23"/><path d="M1 100H899" stroke="#101c23"/><path d="M1 140H899" stroke="#101c23"/><path d="M1 180H899" stroke="#101c23"/><path d="M1 220H899" stroke="#101c23"/><path d="M1 260H899" stroke="#101c23"/></g><path d="M1 26V1H72 M828 295H899V270" stroke="#39ff88" stroke-width="2" fill="none"/><text x="24" y="31" fill="#39ff88" font-family="Consolas,monospace" font-size="12" font-weight="400">05 / EXECUTION QUEUE</text><text x="24" y="64" fill="#e6f1f5" font-family="Consolas,monospace" font-size="22" font-weight="700">CURRENT_MISSION</text><path d="M24 82H876" stroke="#203943"/><text x="24" y="120" fill="#39ff88" font-family="Consolas,monospace" font-size="15" font-weight="400">&gt; Building scalable systems</text><text x="24" y="156" fill="#e6f1f5" font-family="Consolas,monospace" font-size="15" font-weight="400">&gt; Exploring applied AI</text><text x="24" y="192" fill="#e6f1f5" font-family="Consolas,monospace" font-size="15" font-weight="400">&gt; Improving backend architecture</text><text x="24" y="228" fill="#e6f1f5" font-family="Consolas,monospace" font-size="15" font-weight="400">&gt; Learning DevOps &amp; Cloud</text><text x="24" y="264" fill="#e6f1f5" font-family="Consolas,monospace" font-size="15" font-weight="400">&gt; Shipping useful projects</text></svg>