<svg xmlns="http://www.w3.org/2000/svg" width="420" height="296" viewBox="0 0 420 296" role="img" aria-labelledby="title"><title id="title">Missão atual: sistemas escaláveis, IA aplicada, arquitetura backend, DevOps e entrega de projetos</title><rect x="1" y="1" width="418" height="294" rx="4" fill="#080d12" stroke="#203943"/><g opacity="0.5"><path d="M20 1L20 295" stroke="#101c23"/><path d="M60 1L60 295" stroke="#101c23"/><path d="M100 1L100 295" stroke="#101c23"/><path d="M140 1L140 295" stroke="#101c23"/><path d="M180 1L180 295" stroke="#101c23"/><path d="M220 1L220 295" stroke="#101c23"/><path d="M260 1L260 295" stroke="#101c23"/><path d="M300 1L300 295" stroke="#101c23"/><path d="M340 1L340 295" stroke="#101c23"/><path d="M380 1L380 295" stroke="#101c23"/><path d="M1 20H419" stroke="#101c23"/><path d="M1 60H419" stroke="#101c23"/><path d="M1 100H419" stroke="#101c23"/><path d="M1 140H419" stroke="#101c23"/><path d="M1 180H419" stroke="#101c23"/><path d="M1 220H419" stroke="#101c23"/><path d="M1 260H419" stroke="#101c23"/></g><path d="M1 26V1H72 M348 295H419V270" stroke="#39ff88" stroke-width="2" fill="none"/><text x="24" y="31" fill="#39ff88" font-family="Consolas,monospace" font-size="12" font-weight="400">05 / EXECUTION QUEUE</text><text x="24" y="64" fill="#e6f1f5" font-family="Consolas,monospace" font-size="22" font-weight="700">CURRENT_MISSION</text><path d="M24 82H396" stroke="#203943"/><text x="24" y="120" fill="#39ff88" font-family="Consolas,monospace" font-size="15" font-weight="400">&gt; Building scalable systems</text><text x="24" y="156" fill="#e6f1f5" font-family="Consolas,monospace" font-size="15" font-weight="400">&gt; Exploring applied AI</text><text x="24" y="192" fill="#e6f1f5" font-family="Consolas,monospace" font-size="15" font-weight="400">&gt; Improving backend architecture</text><text x="24" y="228" fill="#e6f1f5" font-family="Consolas,monospace" font-size="15" font-weight="400">&gt; Learning DevOps &amp; Cloud</text><text x="24" y="264" fill="#e6f1f5" font-family="Consolas,monospace" font-size="15" font-weight="400">&gt; Shipping useful projects</text></svg>