<svg xmlns="http://www.w3.org/2000/svg" viewBox="0 0 800 345" width="800" height="345" role="img" aria-labelledby="title"><title id="title">Diogo dos Reis Lago; Software Engineer; Data &amp; Machine Learning; Cloud &amp; DevOps; Software Engineering Student; Brazil UTC-3. Building, learning and shipping.</title><rect x="0.5" y="0.5" width="799" height="344" rx="5" fill="#051424" stroke="#273647"/><rect x="16" y="16" width="768" height="30" rx="5" fill="#010f1f" stroke="#273647"/><text x="28" y="36" fill="#00f0ff" font-family="Consolas,DejaVu Sans Mono,monospace" font-size="12" font-weight="400">01 // PROFILE_SCAN.EXE</text><rect x="24" y="66" width="226" height="253" rx="5" fill="#010f1f" stroke="#273647"/><g transform="translate(85 85)" fill="none" stroke="#00f0ff"><rect width="100" height="100" rx="5" stroke-dasharray="4 3" opacity=".5"/><path d="M25 20H55C80 20 80 48 55 48H25V20M25 48H56C83 48 83 80 56 80H25V48" stroke-width="2"/><path d="M10 50H90" opacity=".4"/><circle cx="50" cy="50" r="3" fill="#00f0ff"/></g><text x="36" y="224" fill="#4edea3" font-family="Consolas,DejaVu Sans Mono,monospace" font-size="11" font-weight="400">&gt; software_engineering.core</text><text x="36" y="251" fill="#4edea3" font-family="Consolas,DejaVu Sans Mono,monospace" font-size="11" font-weight="400">&gt; data_ml_pipeline.engine</text><text x="36" y="278" fill="#4edea3" font-family="Consolas,DejaVu Sans Mono,monospace" font-size="11" font-weight="400">&gt; cloud_devops.runtime</text><text x="36" y="305" fill="#00f0ff" font-family="Consolas,DejaVu Sans Mono,monospace" font-size="11" font-weight="400">READY_FOR_DEPLOYMENT</text><text x="278" y="85" fill="#00f0ff" font-family="Consolas,DejaVu Sans Mono,monospace" font-size="10" font-weight="400">SYSTEM OPERATOR SPECIFICATION</text><text x="278" y="122" fill="#dbfcff" font-family="Segoe UI,Arial,sans-serif" font-size="29" font-weight="700">DIOGO DOS REIS LAGO</text><text x="278" y="154" fill="#4edea3" font-family="Segoe UI,Arial,sans-serif" font-size="16" font-weight="400">Software Engineer</text><text x="278" y="179" fill="#b9cacb" font-family="Segoe UI,Arial,sans-serif" font-size="16" font-weight="400">Data &amp; Machine Learning</text><text x="278" y="204" fill="#b9cacb" font-family="Segoe UI,Arial,sans-serif" font-size="16" font-weight="400">Cloud &amp; DevOps</text><rect x="278" y="222" width="498" height="67" rx="5" fill="#122131" stroke="#273647"/><text x="290" y="246" fill="#dbfcff" font-family="Segoe UI,Arial,sans-serif" font-size="13" font-weight="400">Software Engineering Student</text><text x="290" y="272" fill="#00f0ff" font-family="Consolas,DejaVu Sans Mono,monospace" font-size="12" font-weight="400">Brazil [BR] // UTC-3</text><text x="278" y="318" fill="#dbfcff" font-family="Segoe UI,Arial,sans-serif" font-size="15" font-weight="400">Building, learning and shipping.</text></svg>
