<svg xmlns="http://www.w3.org/2000/svg" width="420" height="549" viewBox="0 0 420 549" role="img" aria-labelledby="title"><title id="title">GitHub: 7 repositórios públicos; distribuição de linguagens por bytes. Snapshot 2026-09-26</title><rect x="1" y="1" width="418" height="547" rx="4" fill="#080d12" stroke="#203943"/><g opacity="0.5"><path d="M20 1L20 548" stroke="#101c23"/><path d="M60 1L60 548" stroke="#101c23"/><path d="M100 1L100 548" stroke="#101c23"/><path d="M140 1L140 548" stroke="#101c23"/><path d="M180 1L180 548" stroke="#101c23"/><path d="M220 1L220 548" stroke="#101c23"/><path d="M260 1L260 548" stroke="#101c23"/><path d="M300 1L300 548" stroke="#101c23"/><path d="M340 1L340 548" stroke="#101c23"/><path d="M380 1L380 548" stroke="#101c23"/><path d="M1 20H419" stroke="#101c23"/><path d="M1 60H419" stroke="#101c23"/><path d="M1 100H419" stroke="#101c23"/><path d="M1 140H419" stroke="#101c23"/><path d="M1 180H419" stroke="#101c23"/><path d="M1 220H419" stroke="#101c23"/><path d="M1 260H419" stroke="#101c23"/><path d="M1 300H419" stroke="#101c23"/><path d="M1 340H419" stroke="#101c23"/><path d="M1 380H419" stroke="#101c23"/><path d="M1 420H419" stroke="#101c23"/><path d="M1 460H419" stroke="#101c23"/><path d="M1 500H419" stroke="#101c23"/><path d="M1 540H419" stroke="#101c23"/></g><path d="M1 26V1H72 M348 548H419V523" stroke="#39ff88" stroke-width="2" fill="none"/><text x="24" y="31" fill="#39ff88" font-family="Consolas,monospace" font-size="12" font-weight="400">04 / PUBLIC SIGNALS</text><text x="24" y="64" fill="#e6f1f5" font-family="Consolas,monospace" font-size="22" font-weight="700">GITHUB_TELEMETRY</text><path d="M24 82H396" stroke="#203943"/><text x="24" y="109" fill="#37dfff" font-family="Consolas,monospace" font-size="12" font-weight="400">SNAPSHOT / 2026-09-26 UTC</text><text x="24" y="160" fill="#39ff88" font-family="Consolas,monospace" font-size="36" font-weight="700">7</text><text x="24" y="184" fill="#94aab9" font-family="Consolas,monospace" font-size="11" font-weight="400">PUBLIC REPOS</text><text x="148" y="160" fill="#39ff88" font-family="Consolas,monospace" font-size="36" font-weight="700">0</text><text x="148" y="184" fill="#94aab9" font-family="Consolas,monospace" font-size="11" font-weight="400">REPO STARS</text><text x="272" y="160" fill="#39ff88" font-family="Consolas,monospace" font-size="36" font-weight="700">0</text><text x="272" y="184" fill="#94aab9" font-family="Consolas,monospace" font-size="11" font-weight="400">FOLLOWERS</text><path d="M24 204H396" stroke="#203943"/><text x="24" y="233" fill="#37dfff" font-family="Consolas,monospace" font-size="12" font-weight="400">LANGUAGE DISTRIBUTION / BYTES</text><text x="24" y="265" fill="#e6f1f5" font-family="Consolas,monospace" font-size="14" font-weight="400">JavaScript</text><text x="332" y="265" fill="#94aab9" font-family="Consolas,monospace" font-size="13" font-weight="400">21.3%</text><rect x="24" y="276" width="372" height="6" rx="2" fill="#152831" stroke="#152831"/><rect x="24" y="276" width="79.2" height="6" rx="2" fill="#39ff88" stroke="#39ff88"/><text x="24" y="313" fill="#e6f1f5" font-family="Consolas,monospace" font-size="14" font-weight="400">TypeScript</text><text x="332" y="313" fill="#94aab9" font-family="Consolas,monospace" font-size="13" font-weight="400">17.9%</text><rect x="24" y="324" width="372" height="6" rx="2" fill="#152831" stroke="#152831"/><rect x="24" y="324" width="66.4" height="6" rx="2" fill="#37dfff" stroke="#37dfff"/><text x="24" y="361" fill="#e6f1f5" font-family="Consolas,monospace" font-size="14" font-weight="400">Jupyter Notebook</text><text x="332" y="361" fill="#94aab9" font-family="Consolas,monospace" font-size="13" font-weight="400">17.7%</text><rect x="24" y="372" width="372" height="6" rx="2" fill="#152831" stroke="#152831"/><rect x="24" y="372" width="65.8" height="6" rx="2" fill="#39ff88" stroke="#39ff88"/><text x="24" y="409" fill="#e6f1f5" font-family="Consolas,monospace" font-size="14" font-weight="400">PHP</text><text x="332" y="409" fill="#94aab9" font-family="Consolas,monospace" font-size="13" font-weight="400">14.6%</text><rect x="24" y="420" width="372" height="6" rx="2" fill="#152831" stroke="#152831"/><rect x="24" y="420" width="54.5" height="6" rx="2" fill="#37dfff" stroke="#37dfff"/><text x="24" y="457" fill="#e6f1f5" font-family="Consolas,monospace" font-size="14" font-weight="400">Python</text><text x="332" y="457" fill="#94aab9" font-family="Consolas,monospace" font-size="13" font-weight="400">8.5%</text><rect x="24" y="468" width="372" height="6" rx="2" fill="#152831" stroke="#152831"/><rect x="24" y="468" width="31.6" height="6" rx="2" fill="#39ff88" stroke="#39ff88"/><text x="24" y="523" fill="#94aab9" font-family="Consolas,monospace" font-size="11" font-weight="400">PUBLIC CODE / NOT A SKILL RATING</text></svg>